<svg xmlns="http://www.w3.org/2000/svg" viewBox="0 0 512 512" fill="currentColor" aria-hidden="true"><path d="M64 464H96v48H64c-35.3 0-64-28.7-64-64V64C0 28.7 28.7 0 64 0H229.5c17 0 33.3 6.7 45.3 18.7l90.5 90.5c12 12 18.7 28.3 18.7 45.3V384c0 35.3-28.7 64-64 64H64zM336 433.5V464H384c17.7 0 32-14.3 32-32V253.5L336 433.5zM256 51.9l78.1 78.1H256V51.9zM64 128h96 16 64c17.7 0 32 14.3 32 32s-14.3 32-32 32H176 144 64V128zm0 64h64v32H64V192zm0 64h96c17.7 0 32 14.3 32 32s-14.3 32-32 32H64V256zm0 64h64v32H64V320zm0 64h96v32H64V384z"/></svg>
