<svg xmlns="http://www.w3.org/2000/svg" viewBox="0 0 640 512" fill="currentColor" aria-hidden="true"><path d="M64 64C28.7 64 0 92.7 0 128V352c0 35.3 28.7 64 64 64H576c35.3 0 64-28.7 64-64V128c0-35.3-28.7-64-64-64H64zM176 192c0-8.8 7.2-16 16-16h64c8.8 0 16 7.2 16 16v64c0 8.8-7.2 16-16 16H192c-8.8 0-16-7.2-16-16V192zm96 0c0-8.8 7.2-16 16-16h64c8.8 0 16 7.2 16 16v64c0 8.8-7.2 16-16 16H288c-8.8 0-16-7.2-16-16V192zm96 0c0-8.8 7.2-16 16-16h64c8.8 0 16 7.2 16 16v64c0 8.8-7.2 16-16 16H384c-8.8 0-16-7.2-16-16V192zM64 416H576c17.7 0 32-14.3 32-32s-14.3-32-32-32H64c-17.7 0-32 14.3-32 32s14.3 32 32 32z"/></svg>
